<?xml version="1.0" encoding="UTF-8" ?>
<!DOCTYPE svg PUBLIC "-//W3C//DTD SVG 1.1//EN" "http://www.w3.org/Graphics/SVG/1.1/DTD/svg11.dtd">
<svg width="185pt" height="188pt" viewBox="0 0 185 188" version="1.1" xmlns="http://www.w3.org/2000/svg">
<g id="#efefefff">
</g>
<g id="#ffffffff">
<path fill="#ffffff" opacity="1.00" d=" M 88.61 17.56 C 92.78 14.92 98.66 12.38 103.06 15.89 C 115.63 23.41 128.13 31.07 140.46 38.97 C 136.87 41.31 133.26 43.61 129.67 45.94 C 119.52 40.38 110.00 33.74 99.93 28.05 C 97.42 26.46 94.62 28.10 92.36 29.34 C 83.21 34.92 74.15 40.63 64.99 46.19 C 61.21 43.95 57.50 41.60 53.78 39.27 C 65.23 31.77 77.10 24.95 88.61 17.56 Z" />
<path fill="#ffffff" opacity="1.00" d=" M 38.93 47.88 C 42.53 45.46 45.93 49.66 49.08 50.92 C 60.74 58.29 72.54 65.44 84.18 72.85 C 88.51 75.53 92.87 78.43 97.86 79.75 C 117.10 69.31 135.09 56.62 154.37 46.19 C 156.75 49.33 159.53 52.65 158.82 56.99 C 159.34 77.00 159.07 97.03 158.99 117.04 C 160.66 123.74 154.68 127.87 149.87 130.91 C 134.56 139.90 119.61 149.48 104.27 158.42 C 104.07 166.12 104.00 173.81 103.73 181.51 C 103.11 181.63 101.88 181.86 101.27 181.98 C 100.01 178.58 98.68 175.21 97.33 171.85 C 96.14 175.18 94.97 178.51 93.82 181.86 C 93.13 181.91 91.75 182.02 91.05 182.07 C 91.02 174.42 90.99 166.77 90.94 159.12 C 75.21 149.49 59.45 139.91 43.71 130.32 C 41.23 128.28 37.32 127.08 36.49 123.63 C 35.08 101.78 36.71 79.86 35.53 58.00 C 35.43 54.46 35.22 49.75 38.93 47.88 M 47.04 63.98 C 46.94 82.18 46.92 100.38 47.19 118.58 C 62.01 127.03 76.34 136.32 90.96 145.12 C 91.06 127.09 91.01 109.06 90.96 91.02 C 76.42 81.86 61.59 73.14 47.04 63.98 M 104.11 90.34 C 103.94 108.37 103.86 126.41 104.20 144.44 C 118.60 136.12 132.51 127.01 146.89 118.66 C 147.06 100.63 147.14 82.59 146.80 64.56 C 132.40 72.88 118.48 81.99 104.11 90.34 Z" />
</g>
</svg>
